<svg xmlns="http://www.w3.org/2000/svg" id="Layer_2" data-name="Layer 2" viewBox="0 0 260.99 126.6"><defs><style>      .cls-1 {        fill: #ab926a;        stroke-width: 0px;      }    </style></defs><g id="Layer_1-2" data-name="Layer 1"><g><g><path class="cls-1" d="m123.4,21.11c.03-1.46.07-2.95.13-4.46.06-1.52.11-2.92.17-4.21,0-.23-.23-.39-.69-.47-.46-.08-.97-.17-1.55-.26-.57-.09-1.09-.22-1.54-.41-.46-.19-.69-.49-.69-.92,0-.37.37-.58,1.12-.64.74-.06,1.84-.09,3.3-.09.11,0,.19-.17.24-.51.04-.34.07-.78.09-1.31.01-.53.03-1.09.04-1.7.01-.6.03-1.17.06-1.69.03-.53.08-.97.15-1.31.07-.34.16-.52.28-.52.14,0,.4.03.77.09.37.06.76.14,1.16.24s.75.22,1.05.36c.3.14.45.3.45.47l-.47,5.58c0,.17.15.29.45.36.3.07.69.11,1.16.13.47.01.97.02,1.5.02s1.03.04,1.5.13c.47.09.86.22,1.16.41.3.19.45.46.45.84,0,.06-.03.15-.09.28-.06.13-.13.19-.21.19-.06,0-.14-.04-.24-.13-.1-.09-.37-.13-.79-.13-.11,0-.43.02-.94.04-.51.03-1.06.07-1.63.13-.57.06-1.09.12-1.57.19-.47.07-.74.17-.79.28-.03.06-.06.39-.11,1.01-.04.62-.09,1.42-.13,2.42-.04,1-.08,2.15-.11,3.45-.03,1.3-.04,2.67-.04,4.1,0,.54.03,1.07.09,1.59.06.51.14.98.26,1.39.11.41.26.75.45,1.01.19.26.41.39.66.39.37,0,.72-.16,1.03-.47.31-.31.6-.74.86-1.29.26-.54.49-1.16.69-1.84.2-.69.37-1.39.51-2.1.09-.43.19-.73.3-.92.11-.19.29-.28.52-.28.2,0,.38.06.54.19.16.13.24.42.24.88,0,.29-.01.47-.04.56-.09.51-.25,1.22-.49,2.12-.24.9-.57,1.79-.99,2.66-.41.87-.92,1.64-1.52,2.3-.6.66-1.3.99-2.1.99s-1.44-.22-2.02-.66c-.57-.44-1.05-1.06-1.44-1.84-.39-.79-.68-1.72-.88-2.79-.2-1.07-.3-2.22-.3-3.45v-.39Z"></path><path class="cls-1" d="m148.75,22.78c-.03.4-.15.97-.37,1.7-.21.73-.53,1.44-.95,2.14-.41.7-.94,1.32-1.59,1.85-.64.53-1.42.79-2.34.79s-1.59-.26-2.12-.77c-.53-.51-.93-1.22-1.2-2.12-.27-.9-.44-1.98-.52-3.24-.07-1.26-.11-2.63-.11-4.12v-.97c0-.39.01-.72.04-1.01-.34.63-.69,1.42-1.03,2.38-.34.96-.65,1.98-.92,3.07-.27,1.09-.49,2.2-.66,3.33-.17,1.13-.27,2.19-.3,3.2-.29.06-.59.13-.92.22-.33.08-.71.13-1.14.13-.17,0-.37-.01-.6-.04-.23-.03-.46-.08-.69-.17-.23-.09-.42-.21-.58-.36-.16-.16-.24-.37-.24-.62,0-.06.05-.19.15-.39.1-.2.15-.6.15-1.2V1.89c0-.4-.05-.67-.15-.81-.1-.14-.15-.31-.15-.51,0-.11.1-.21.3-.28.2-.07.43-.13.69-.17.26-.04.52-.07.79-.09.27-.01.49-.02.66-.02.74,0,1.5.16,2.27.47-.14.77-.28,1.79-.41,3.07-.13,1.27-.25,2.59-.36,3.95-.11,1.36-.2,2.66-.26,3.9-.06,1.24-.09,2.21-.09,2.89v.32c0,.13,0,.46-.02.99-.01.53-.03,1.35-.04,2.47-.01,1.11-.04,2.69-.06,4.72,0-.03.06-.3.19-.81.13-.51.29-1.16.49-1.93.2-.77.44-1.6.71-2.49.27-.89.56-1.71.86-2.47.3-.76.61-1.39.92-1.89.32-.5.61-.75.9-.75.31,0,.75.06,1.31.19.56.13.91.35,1.05.67.11.34.24.59.36.73.13.15.24.26.34.34.1.09.19.17.26.26.07.09.11.21.11.39-.03.08-.09.37-.19.86-.1.49-.2,1.09-.3,1.82-.1.73-.19,1.53-.28,2.4-.08.87-.13,1.74-.13,2.59,0,1.14.1,2.13.3,2.96.2.83.59,1.24,1.16,1.24s1.04-.17,1.42-.51c.37-.34.68-.77.92-1.29.24-.51.43-1.07.56-1.65.13-.59.24-1.11.32-1.57.14-.6.36-.9.64-.9.31,0,.54.11.66.34.13.23.19.53.19.9l-.04.56Z"></path><path class="cls-1" d="m159.48,22.27c0,.72-.13,1.52-.39,2.4-.26.89-.66,1.71-1.2,2.47-.54.76-1.24,1.4-2.08,1.91-.85.52-1.85.77-3.03.77s-2.06-.2-2.83-.6c-.77-.4-1.41-.95-1.91-1.63-.5-.69-.86-1.49-1.07-2.42-.21-.93-.32-1.91-.32-2.94s.11-2.1.34-3.3c.23-1.2.59-2.32,1.07-3.37.49-1.04,1.1-1.92,1.84-2.62.74-.7,1.64-1.05,2.7-1.05.52,0,1,.11,1.46.32.46.21.86.49,1.2.84.34.34.62.74.81,1.2.2.46.31.93.34,1.42l.04.6c0,.69-.12,1.44-.34,2.25-.23.82-.56,1.57-.99,2.27-.43.7-.96,1.29-1.59,1.76-.63.47-1.35.71-2.14.71-.14,0-.32-.02-.54-.04-.21-.03-.42-.07-.62-.13v1.24c0,.2.06.49.19.86.13.37.32.74.58,1.09.26.36.59.67,1.01.94.41.27.92.41,1.52.41.83,0,1.51-.16,2.04-.49.53-.33.97-.75,1.31-1.26.34-.51.61-1.09.79-1.74.18-.64.34-1.27.45-1.87.09-.4.17-.67.26-.81.09-.14.23-.22.43-.22.43,0,.64.24.64.73v.3Zm-5.06-6.65c0-.23-.06-.47-.19-.73-.13-.26-.37-.39-.71-.39-.51,0-.96.27-1.33.82-.37.54-.68,1.17-.92,1.87-.24.7-.42,1.37-.54,2.02-.11.64-.17,1.07-.17,1.27v.13c0,.26.02.47.06.62.04.16.19.24.45.24h.21c.57,0,1.06-.22,1.46-.64.4-.43.72-.94.97-1.54.24-.6.42-1.22.54-1.85.11-.63.17-1.14.17-1.54v-.26Z"></path></g><path class="cls-1" d="m138.07,88.17c-1.2-1.2-2.18-3.02-2.96-5.48-.18.36-.4,1.14-.67,2.33-.27,1.2-.67,2.44-1.21,3.73-.54,1.29-1.24,2.46-2.11,3.5-.87,1.05-1.96,1.57-3.28,1.57-3.83,0-6.46-1.11-7.9-3.32-1.44-2.21-2.27-5.48-2.51-9.78v-21.63c.12-.42.19-.72.22-.9.03-.18.28-.27.76-.27.3,0,.82.06,1.57.18.75.12,1.51.28,2.29.49.78.21,1.48.49,2.11.85.63.36.94.78.94,1.26v15.89c0,1.08.01,2.27.05,3.59.03,1.32.12,2.53.27,3.64.15,1.11.4,2.03.76,2.78.36.75.87,1.12,1.53,1.12,1.74,0,3.08-1.75,4.04-5.25.96-3.5,1.5-9.02,1.62-16.56,0-.48-.12-.96-.36-1.44-.24-.48-.36-1.05-.36-1.71.12-.48.61-.78,1.48-.9.87-.12,1.66-.18,2.38-.18,1.8,0,3.11.18,3.95.54.84.36,1.26,1.44,1.26,3.23-.12,1.08-.23,1.93-.31,2.56-.09.63-.15,1.2-.18,1.7-.03.51-.06,1.05-.09,1.62-.03.57-.04,1.39-.04,2.47,0,1.38.06,2.81.18,4.31.12,1.5.33,2.87.63,4.13.3,1.26.67,2.29,1.12,3.1.45.81,1.03,1.21,1.75,1.21.66,0,1.17-.19,1.53-.58.36-.39.69-.82.99-1.3.3-.48.6-.91.9-1.3.3-.39.72-.58,1.26-.58.48,0,.84.17,1.08.49.24.33.36.64.36.94,0,1.14-.28,2.1-.85,2.87-.57.78-1.26,1.41-2.07,1.88-.81.48-1.63.82-2.47,1.03-.84.21-1.53.31-2.06.31-1.02,0-1.89-.12-2.6-.36-.72-.24-1.44-.6-2.15-1.08l-.81-.72Z"></path><path class="cls-1" d="m148.06,76.05c.06-3.05.15-6.16.27-9.34.12-3.17.24-6.1.36-8.8,0-.48-.48-.81-1.44-.99-.96-.18-2.03-.36-3.23-.54-1.2-.18-2.27-.46-3.23-.85-.96-.39-1.44-1.03-1.44-1.93,0-.78.78-1.23,2.33-1.35,1.56-.12,3.86-.18,6.91-.18.24,0,.4-.36.49-1.08.09-.72.15-1.63.18-2.74.03-1.11.06-2.29.09-3.55.03-1.26.07-2.44.14-3.55.06-1.11.16-2.02.31-2.74.15-.72.34-1.08.58-1.08.3,0,.84.06,1.62.18.78.12,1.58.29,2.42.49.84.21,1.57.47,2.2.76.63.3.94.63.94.99l-.99,11.67c0,.36.31.61.94.76.63.15,1.44.24,2.42.27.99.03,2.03.04,3.14.04s2.15.09,3.14.27c.99.18,1.79.46,2.42.85.63.39.94.97.94,1.75,0,.12-.06.31-.18.58-.12.27-.27.4-.45.4-.12,0-.29-.09-.49-.27-.21-.18-.76-.27-1.66-.27-.24,0-.9.03-1.98.09-1.08.06-2.21.15-3.41.27-1.2.12-2.29.26-3.28.4-.99.15-1.54.35-1.66.58-.06.12-.13.82-.22,2.11-.09,1.29-.18,2.98-.27,5.07-.09,2.1-.17,4.5-.22,7.23-.06,2.72-.09,5.58-.09,8.57,0,1.14.06,2.24.18,3.32.12,1.08.3,2.05.54,2.92.24.87.55,1.57.94,2.11.39.54.85.81,1.39.81.78,0,1.5-.33,2.15-.99.66-.66,1.26-1.56,1.8-2.69.54-1.14,1.02-2.42,1.44-3.86.42-1.44.78-2.9,1.08-4.4.18-.9.39-1.54.63-1.93.24-.39.6-.58,1.08-.58.42,0,.79.13,1.12.4.33.27.49.88.49,1.84,0,.6-.03.99-.09,1.17-.18,1.08-.52,2.56-1.03,4.44-.51,1.88-1.2,3.74-2.06,5.57-.87,1.83-1.93,3.43-3.19,4.8-1.26,1.38-2.72,2.06-4.4,2.06s-3.02-.46-4.22-1.39c-1.2-.93-2.2-2.21-3.01-3.86-.81-1.64-1.42-3.59-1.84-5.83-.42-2.24-.63-4.65-.63-7.23v-.81Z"></path><path class="cls-1" d="m168.89,76.05c.06-3.05.15-6.16.27-9.34.12-3.17.24-6.1.36-8.8,0-.48-.48-.81-1.44-.99-.96-.18-2.03-.36-3.23-.54-1.19-.18-2.27-.46-3.23-.85-.96-.39-1.44-1.03-1.44-1.93,0-.78.78-1.23,2.33-1.35,1.56-.12,3.86-.18,6.91-.18.24,0,.4-.36.49-1.08.09-.72.15-1.63.18-2.74.03-1.11.06-2.29.09-3.55.03-1.26.07-2.44.14-3.55.06-1.11.16-2.02.31-2.74.15-.72.34-1.08.58-1.08.3,0,.84.06,1.62.18.78.12,1.59.29,2.42.49.84.21,1.57.47,2.2.76.63.3.94.63.94.99l-.99,11.67c0,.36.31.61.94.76.63.15,1.44.24,2.42.27.99.03,2.03.04,3.14.04s2.16.09,3.14.27c.99.18,1.79.46,2.42.85.63.39.94.97.94,1.75,0,.12-.06.31-.18.58-.12.27-.27.4-.45.4-.12,0-.28-.09-.49-.27-.21-.18-.76-.27-1.66-.27-.24,0-.9.03-1.97.09-1.08.06-2.21.15-3.41.27-1.2.12-2.29.26-3.28.4-.99.15-1.54.35-1.66.58-.06.12-.13.82-.22,2.11-.09,1.29-.18,2.98-.27,5.07-.09,2.1-.17,4.5-.22,7.23-.06,2.72-.09,5.58-.09,8.57,0,1.14.06,2.24.18,3.32.12,1.08.3,2.05.54,2.92.24.87.55,1.57.94,2.11.39.54.85.81,1.39.81.78,0,1.5-.33,2.15-.99.66-.66,1.26-1.56,1.8-2.69.54-1.14,1.02-2.42,1.44-3.86.42-1.44.78-2.9,1.08-4.4.18-.9.39-1.54.63-1.93.24-.39.6-.58,1.08-.58.42,0,.79.13,1.12.4.33.27.49.88.49,1.84,0,.6-.03.99-.09,1.17-.18,1.08-.52,2.56-1.03,4.44-.51,1.88-1.2,3.74-2.06,5.57-.87,1.83-1.93,3.43-3.19,4.8-1.26,1.38-2.72,2.06-4.4,2.06s-3.02-.46-4.22-1.39c-1.2-.93-2.2-2.21-3.01-3.86-.81-1.64-1.42-3.59-1.84-5.83-.42-2.24-.63-4.65-.63-7.23v-.81Z"></path><path class="cls-1" d="m213.23,78.47c0,1.5-.27,3.17-.81,5.03-.54,1.86-1.38,3.58-2.51,5.16-1.14,1.59-2.59,2.92-4.35,3.99-1.77,1.08-3.88,1.62-6.33,1.62s-4.31-.42-5.92-1.26c-1.62-.84-2.95-1.97-3.99-3.41-1.05-1.44-1.8-3.13-2.24-5.07-.45-1.94-.67-3.99-.67-6.15s.24-4.4.72-6.91c.48-2.51,1.23-4.86,2.24-7.05,1.02-2.18,2.3-4.01,3.86-5.47,1.56-1.47,3.44-2.2,5.66-2.2,1.08,0,2.09.22,3.05.67.96.45,1.8,1.03,2.51,1.75.72.72,1.29,1.56,1.71,2.51.42.96.66,1.95.72,2.96l.09,1.26c0,1.44-.24,3.01-.72,4.71-.48,1.71-1.17,3.29-2.06,4.76-.9,1.47-2.01,2.69-3.32,3.68-1.32.99-2.81,1.48-4.49,1.48-.3,0-.67-.03-1.12-.09-.45-.06-.88-.15-1.3-.27v2.6c0,.42.13,1.02.4,1.79.27.78.67,1.54,1.21,2.29.54.75,1.24,1.41,2.11,1.97.87.57,1.93.85,3.19.85,1.73,0,3.16-.34,4.26-1.03,1.11-.69,2.02-1.57,2.74-2.65.72-1.08,1.27-2.29,1.66-3.64.39-1.35.7-2.65.94-3.91.18-.84.36-1.4.54-1.71.18-.3.48-.45.9-.45.9,0,1.35.51,1.35,1.53v.63Zm-10.59-13.91c0-.48-.13-.99-.4-1.53-.27-.54-.76-.81-1.48-.81-1.08,0-2.01.57-2.78,1.71-.78,1.14-1.42,2.44-1.93,3.9-.51,1.47-.88,2.87-1.12,4.22-.24,1.35-.36,2.23-.36,2.65v.27c0,.54.05.97.14,1.3.09.33.4.49.94.49h.45c1.2,0,2.21-.45,3.05-1.35.84-.9,1.51-1.97,2.02-3.23.51-1.26.88-2.54,1.12-3.86.24-1.32.36-2.39.36-3.23v-.54Z"></path><path class="cls-1" d="m236.12,79.64c0,.42-.14,1.42-.4,3.01-.27,1.59-.75,3.26-1.44,5.03-.69,1.77-1.62,3.34-2.78,4.71-1.17,1.38-2.65,2.06-4.44,2.06-1.91,0-3.44-.67-4.58-2.02-1.14-1.35-2.01-2.96-2.6-4.85-.6-1.89-.99-3.86-1.17-5.93-.18-2.07-.27-3.78-.27-5.16,0-1.56.09-3.13.27-4.71.18-1.59.3-3.16.36-4.71,0-.48-.24-.78-.72-.9-.48-.12-.93-.18-1.35-.18-.72,0-1.17.09-1.35.27-.18.18-.3.39-.36.63l-.36,2.87c-.24,1.92-.49,3.76-.76,5.52-.27,1.77-.57,3.32-.9,4.67-.33,1.35-.72,2.42-1.17,3.23-.45.81-.97,1.21-1.57,1.21h-.09c-.24,0-.47-.06-.67-.18-.21-.12-.31-.42-.31-.9,0-.24.06-.6.18-1.08.48-2.09.78-3.83.9-5.21.12-1.38.21-2.6.27-3.68v-.63c0-.3.01-.66.05-1.08.03-.42.05-.93.05-1.53v-4.4c0-.72-.06-1.5-.18-2.33l-.27-5.3c0-.36.15-.69.45-.99.3-.3.69-.57,1.17-.81.48-.24.99-.42,1.53-.54.54-.12,1.02-.18,1.44-.18,1.02,0,1.53.66,1.53,1.97v.45l-.09,1.97v.54c0,.42.09.67.27.76.18.09.54.19,1.08.31h.27c.48.06,1.26.12,2.33.18,1.08.06,2.16.18,3.23.36,1.08.18,2.02.47,2.83.85.81.39,1.21.94,1.21,1.66,0,.24-.06.58-.18,1.03-.12.45-.27.9-.45,1.35-.18.45-.33.85-.45,1.21-.12.36-.18.6-.18.72-1.08,4.13-1.62,8.44-1.62,12.93,0,.36.03,1.02.09,1.97.06.96.18,1.94.36,2.96.18,1.02.45,1.92.81,2.69.36.78.81,1.17,1.35,1.17.9,0,1.71-.55,2.42-1.66.72-1.11,1.35-2.39,1.88-3.86.54-1.47.97-2.95,1.3-4.44.33-1.5.55-2.6.67-3.32.12-.66.31-1.06.58-1.21.27-.15.52-.22.76-.22.84,0,1.26.54,1.26,1.62,0,.12-.01.43-.04.94-.03.51-.08.88-.13,1.12Z"></path><path class="cls-1" d="m260.99,91.76c0,.48-.12.81-.36.99-.24.18-.51.3-.81.36-.3.06-.61.1-.94.13-.33.03-.55.13-.67.31v14.27c0,1.14-.02,2.38-.04,3.72-.03,1.35-.17,2.68-.41,4-.24,1.31-.62,2.54-1.13,3.68-.51,1.14-1.25,2.07-2.21,2.78-.06.06-.26.19-.59.4-.33.21-.69.45-1.08.72-.39.27-.77.52-1.13.76-.36.24-.6.39-.72.45-.84.54-5.26,2.39-6.85,2.24-2.75-.26-4.58-1.33-5.64-2.38-1.05-1.05-1.58-2.74-1.58-5.07s.36-4.88,1.08-7.45c.72-2.57,1.71-5.06,2.96-7.45,1.26-2.39,2.75-4.62,4.49-6.69,1.74-2.07,3.62-3.81,5.65-5.25v-11.49c-.3,1.14-.66,2.45-1.08,3.95-.42,1.5-.94,2.9-1.57,4.22-.63,1.32-1.36,2.42-2.2,3.32-.84.9-1.83,1.35-2.96,1.35-1.02,0-2.12-.36-3.32-1.08-1.2-.72-2.27-1.43-3.23-2.15-.72-.6-1.29-1.54-1.71-2.83-.42-1.29-.73-2.65-.94-4.08-.21-1.44-.34-2.81-.4-4.13-.06-1.31-.09-2.27-.09-2.87,0-2.33.03-4.77.09-7.32.06-2.54.21-4.89.46-7.05.24-2.15.6-3.93,1.09-5.34.48-1.41,1.12-2.11,1.91-2.11.24,0,.73.06,1.45.18.73.12,1.48.31,2.27.58.78.27,1.47.63,2.07,1.08.6.45.9,1,.9,1.66,0,.18-.08.31-.22.4-.15.09-.28.19-.4.31-.36.24-.69.7-.99,1.39-.3.69-.55,1.68-.76,2.96-.21,1.29-.38,2.96-.49,5.03-.12,2.07-.18,4.59-.18,7.59,0,4.49.16,7.69.49,9.61.33,1.92,1,2.87,2.02,2.87,1.08,0,2.05-.81,2.92-2.42.87-1.62,1.66-3.74,2.38-6.37.72-2.63,1.38-5.63,1.97-8.98.6-3.35,1.14-6.73,1.62-10.14.6,0,1.27.03,2.02.09.75.06,1.47.18,2.16.36.69.18,1.27.4,1.75.67.48.27.72.64.72,1.12,0,.3-.18.51-.54.63v26.57c.66.06,1.29.19,1.88.4.6.21.9.7.9,1.48Zm-9.96,4.4c-1.44,1.14-2.72,2.6-3.86,4.4-1.14,1.8-2.11,3.69-2.92,5.7-.81,2-1.42,3.99-1.84,5.97-.42,1.97-.63,3.68-.63,5.12,0,.3.01.79.05,1.48.03.69.16,1.36.4,2.02.24.66.58,1.24,1.03,1.75.45.51,1.12.76,2.02.76,1.31,0,2.35-.7,3.1-2.11.75-1.41,1.32-3.05,1.71-4.94.39-1.88.64-3.77.76-5.66.12-1.88.18-3.28.18-4.17v-10.32Z"></path><path class="cls-1" d="m114.25,75.8c1.44-7.7-2.11-14.07-2.11-14.07,0,0-4.46-7.8-13.19-10.57,4.52-.77,15.6-8.93,11.86-20.28-3.75-11.34-13.81-14.63-13.81-14.63,0,0,4.72-2.62,8.06-2.67,3.34-.05,2.31-1.18,2.31-1.18-4.67-2.93-14.09,1.84-14.09,1.84-4.12-2-5.93-2.43-5.93-2.43-10.82-3.35-13.32-3.62-13.32-3.62-11.41-1.83-19.07,0-19.07,0-17.82,3.08-24.22,15.04-24.22,15.04-5.44.46-14.94,6.73-14.94,6.73C-.37,41.15.04,56.8.04,56.8c-.72,17.45,8.88,28.28,8.88,28.28,12.17,17.4,35.67,16.48,35.67,16.48,18.02.05,31.16-14.32,31.16-14.32,1.28,11.65,13.4,9.85,13.4,9.85,18.48-3.28,23.46-16.89,23.46-16.89.15.15,4.51,5.67,5.38,5.11,2.57-1.8-3.74-9.52-3.74-9.52Zm-9.11-8.14c-2.67-1.08-4.65-2.28-10.96-2.28s-10.62,4.31-10.62,4.31l1.28-15.04c7.96-2.67,12.01-.46,12.01-.46,6.78,3.75,8.29,13.47,8.29,13.47Zm-11.68-48.61s9,6.13,8.98,14.48c0,0,.31,9.83-5.85,14.81-4.83,2.36-11.4,1.17-11.4,1.17,0,0,1.13-24.73,8.26-30.45Zm-60.23,6.67c7.97-4.27,21.7,1.27,21.7,1.27,12.93,6.24,15.25,18.83,15.25,18.83-.69,1.96-7.14,6.58-7.14,6.58-12.92,8.2-24.39,0-24.39,0-14.9-11.2-5.43-26.68-5.43-26.68Zm-2.55,23.33c5.12,8.31,17.91,9.58,17.91,9.58,14.09,1.5,21.92-8.32,21.92-8.32,1.29,7.01-4.41,15.12-4.97,15.94-.56.82-9.44,11.81-20.38,11.76-10.93-.05-17.09-10.37-17.09-10.37-5.85-12.42,2.62-18.59,2.62-18.59Zm12.71,48.97s-21.31,1.5-34.27-18.94c0,0-11.92-17.9,4.13-40.07,0,0,4.74-6.35,14.55-10.97,0,0-3.93,8.31.58,16.63,0,0-17.02,15.47,1.88,31.76,0,0,15.44,12.82,35.07-.69l.46-.34s3.58-2.66,6.7-7.85c0,0-5.08,27.83-29.1,30.49Zm32.72-44.49h-.62c-.31-5.29-1.18-7.75-1.18-7.75,3.39-6.36,3.13-11.34,3.13-11.34.26-8.55-2.93-13.5-2.93-13.5l-3.44,1.85c2.36,5.18,2.62,8.01,2.62,8.01,1.13,7.7-.77,9.96-.77,9.96-8.11-23.05-35.88-18.99-35.88-18.99,9.8-11.86,24.23-11.81,24.23-11.81,14.32-.41,27.77,6.62,27.77,6.62,0,0-3.03,1.75-7.65,11.09-4.62,9.34-5.29,25.87-5.29,25.87Zm24.02,30.28c-10.86,13.24-17.32,8.63-17.32,8.63-3.8-2.35-4.19-6.19-3.47-9.7,1.77-6.7,3.47-8.16,3.47-8.16,11.01-11.4,22.33-2.62,22.33-2.62.46,6.31-5.01,11.86-5.01,11.86Z"></path></g></g></svg>